<svg width="626" height="394" viewBox="0 0 626 394" fill="none" xmlns="http://www.w3.org/2000/svg">
<path opacity="0.5" d="M180.856 187.239H102.173V323.753H180.856H202.371H294.874V85.7009H180.856V187.239Z" fill="#9497A0"/>
<path opacity="0.5" d="M424.571 195.511V6.10352e-05H310.553V323.753H420.075H424.571H508.269V195.511H424.571Z" fill="#9497A0"/>
<path d="M625.429 319.43H0V322.312H625.429V319.43Z" fill="#4D4D4D"/>
<path d="M411.875 119.12H137.032V335.123H411.875V119.12Z" fill="#97A0B9"/>
<path d="M411.875 143.589H137.032V335.123H411.875V143.589Z" fill="white"/>
<path d="M146.875 134.899C149.087 134.899 150.881 133.106 150.881 130.893C150.881 128.68 149.087 126.887 146.875 126.887C144.662 126.887 142.869 128.68 142.869 130.893C142.869 133.106 144.662 134.899 146.875 134.899Z" fill="white"/>
<path d="M167.943 130.893C167.943 133.112 166.142 134.899 163.937 134.899C161.732 134.899 159.931 133.098 159.931 130.893C159.931 128.688 161.732 126.887 163.937 126.887C166.142 126.887 167.943 128.688 167.943 130.893Z" fill="white"/>
<path d="M184.991 130.893C184.991 133.112 183.19 134.899 180.985 134.899C178.78 134.899 176.979 133.098 176.979 130.893C176.979 128.688 178.78 126.887 180.985 126.887C183.19 126.887 184.991 128.688 184.991 130.893Z" fill="white"/>
<path d="M317.326 138.098H204.201C200.425 138.098 197.356 135.029 197.356 131.253C197.356 127.478 200.425 124.408 204.201 124.408H317.326C321.101 124.408 324.171 127.478 324.171 131.253C324.171 135.029 321.101 138.098 317.326 138.098Z" fill="white"/>
<path d="M395.13 138.098H341.579C337.804 138.098 334.734 135.029 334.734 131.253C334.734 127.478 337.804 124.408 341.579 124.408H395.13C398.905 124.408 401.975 127.478 401.975 131.253C401.975 135.029 398.905 138.098 395.13 138.098Z" fill="white"/>
<path d="M256.743 228.93H158.965V284.109H256.743V228.93Z" fill="#97A0B9"/>
<path d="M256.743 161.199H158.965V216.378H256.743V161.199Z" fill="#97A0B9"/>
<path d="M255.893 298.058H159.816V302.382H255.893V298.058Z" fill="#97A0B9"/>
<path d="M255.893 312.469H159.816V316.792H255.893V312.469Z" fill="#97A0B9"/>
<path d="M386.627 298.058H290.551V302.382H386.627V298.058Z" fill="#97A0B9"/>
<path d="M386.627 312.469H290.551V316.792H386.627V312.469Z" fill="#97A0B9"/>
<path d="M413.316 336.578H135.591V117.678H413.316V336.564V336.578ZM138.473 333.696H410.434V120.561H138.473V333.682V333.696Z" fill="#4D4D4D"/>
<path d="M479.173 304.068H450.971V66.765H479.173V304.068ZM453.854 301.185H476.291V69.6472H453.854V301.185Z" fill="#4D4D4D"/>
<path d="M483.021 290.334H447.109V316.072H483.021V290.334Z" fill="#97A0B9"/>
<path d="M477.876 276.687H452.902C452.326 276.687 451.807 276.341 451.577 275.822C451.346 275.304 451.447 274.684 451.836 274.266L475.859 248.327L477.977 250.287L456.203 273.805H477.876V276.687Z" fill="#4D4D4D"/>
<path d="M477.876 250.69H452.902C452.326 250.69 451.807 250.344 451.577 249.826C451.346 249.307 451.447 248.687 451.836 248.269L475.859 222.33L477.977 224.29L456.203 247.808H477.876V250.69Z" fill="#4D4D4D"/>
<path d="M477.876 224.708H452.902C452.326 224.708 451.807 224.362 451.577 223.843C451.346 223.324 451.447 222.705 451.836 222.287L475.859 196.347L477.977 198.307L456.203 221.825H477.876V224.708Z" fill="#4D4D4D"/>
<path d="M477.876 198.725H452.902C452.326 198.725 451.807 198.379 451.577 197.86C451.346 197.341 451.447 196.722 451.836 196.304L475.859 170.364L477.977 172.324L456.203 195.843H477.876V198.725Z" fill="#4D4D4D"/>
<path d="M477.876 172.728H452.902C452.326 172.728 451.807 172.382 451.577 171.863C451.346 171.344 451.447 170.725 451.836 170.307L475.859 144.367L477.977 146.327L456.203 169.846H477.876V172.728Z" fill="#4D4D4D"/>
<path d="M477.876 146.745H452.902C452.326 146.745 451.807 146.399 451.577 145.88C451.346 145.362 451.447 144.742 451.836 144.324L475.859 118.385L477.977 120.344L456.203 143.863H477.876V146.745Z" fill="#4D4D4D"/>
<path d="M477.876 120.748H452.902C452.326 120.748 451.807 120.402 451.577 119.883C451.346 119.364 451.447 118.745 451.836 118.327L475.859 92.3875L477.977 94.3473L456.203 117.866H477.876V120.748Z" fill="#4D4D4D"/>
<path d="M477.876 94.7651H452.902C452.326 94.7651 451.807 94.4193 451.577 93.9005C451.346 93.3817 451.447 92.762 451.836 92.3441L475.859 66.4047L477.977 68.3645L456.203 91.8829H477.876V94.7651Z" fill="#4D4D4D"/>
<path d="M479.13 56.7495H433.419V95.284H479.13V56.7495Z" fill="#ED7445"/>
<path d="M547.812 56.7495H502.101V78.8845H547.812V56.7495Z" fill="#ED7445"/>
<path d="M547.048 59.5595H321.274C320.482 59.5595 319.833 58.911 319.833 58.1184C319.833 57.3259 320.482 56.6774 321.274 56.6774H547.048C547.841 56.6774 548.489 57.3259 548.489 58.1184C548.489 58.911 547.841 59.5595 547.048 59.5595Z" fill="#4D4D4D"/>
<path d="M333.221 64.8486H331.78V158.519H333.221V64.8486Z" fill="#4D4D4D"/>
<path d="M495.27 311.475H434.86V322.802H495.27V311.475Z" fill="#4D4D4D"/>
<path d="M456.433 59.1853C456.246 59.1853 456.059 59.1132 455.929 58.9691L443.896 46.9361H333.523L322.211 58.2486C321.923 58.5368 321.476 58.5368 321.188 58.2486C320.9 57.9603 320.9 57.5136 321.188 57.2254L332.933 45.4806H444.487L456.952 57.9459C457.24 58.2341 457.24 58.6809 456.952 58.9691C456.808 59.1132 456.62 59.1853 456.448 59.1853H456.433Z" fill="#4D4D4D"/>
<path d="M548.014 59.1849C547.754 59.1849 547.509 59.0408 547.38 58.7958L535.332 35.7818H506.121L494.795 58.0609C494.607 58.4211 494.175 58.5508 493.829 58.3779C493.469 58.205 493.339 57.7582 493.512 57.4124L505.242 34.3407H536.211L548.662 58.1329C548.85 58.4788 548.705 58.9255 548.36 59.0984C548.259 59.1561 548.143 59.1849 548.028 59.1849H548.014Z" fill="#4D4D4D"/>
<path d="M337.775 64.8483C337.775 67.7737 335.411 70.1371 332.486 70.1371C329.56 70.1371 327.197 67.7737 327.197 64.8483C327.197 61.9229 329.56 59.5596 332.486 59.5596C335.411 59.5596 337.775 61.9229 337.775 64.8483Z" fill="#97A0B9"/>
<path d="M388.868 156.618L268.201 167.769L273.948 229.946L394.614 218.795L388.868 156.618Z" fill="#97A0B9"/>
<path d="M363.729 46.9215C363.426 46.9215 363.138 46.7198 363.037 46.4171C362.922 46.0425 363.138 45.639 363.512 45.5237L470.195 12.9985C470.354 12.9553 470.527 12.9553 470.685 13.0273L521.253 34.3697C521.613 34.5282 521.786 34.9461 521.642 35.3064C521.484 35.6667 521.066 35.8396 520.705 35.6955L470.383 14.454L363.945 46.9071C363.945 46.9071 363.801 46.9359 363.729 46.9359V46.9215Z" fill="#4D4D4D"/>
<path d="M453.637 59.2859C453.464 59.2859 453.291 59.257 453.119 59.185C452.369 58.8968 451.995 58.0753 452.283 57.326L469.086 13.1281C469.316 12.5228 469.907 12.1481 470.556 12.2058C471.19 12.2634 471.723 12.7246 471.853 13.3586L480.542 56.4757C480.701 57.2539 480.196 58.0177 479.418 58.1762C478.64 58.3347 477.876 57.8304 477.718 57.0522L470.022 18.8347L454.992 58.378C454.776 58.9544 454.228 59.3003 453.652 59.3003L453.637 59.2859Z" fill="#4D4D4D"/>
<path d="M473.337 13.6325C473.337 15.2321 472.04 16.5435 470.426 16.5435C468.812 16.5435 467.515 15.2465 467.515 13.6325C467.515 12.0185 468.812 10.7216 470.426 10.7216C472.04 10.7216 473.337 12.0185 473.337 13.6325Z" fill="#97A0B9"/>
<path d="M348.539 59.3149C348.381 59.3149 348.222 59.2572 348.093 59.1564L333.941 47.7142V58.407C333.941 58.8105 333.624 59.1275 333.221 59.1275C332.817 59.1275 332.5 58.8105 332.5 58.407V46.2011C332.5 45.9273 332.659 45.6679 332.904 45.5526C333.149 45.4373 333.451 45.4661 333.668 45.639L348.986 58.0323C349.289 58.2773 349.346 58.7385 349.087 59.0411C348.943 59.214 348.741 59.3149 348.525 59.3149H348.539Z" fill="#4D4D4D"/>
<path d="M362.23 59.3149C362.071 59.3149 361.913 59.2572 361.783 59.1564L347.632 47.7142V58.407C347.632 58.8105 347.315 59.1275 346.911 59.1275C346.508 59.1275 346.191 58.8105 346.191 58.407V46.2011C346.191 45.9273 346.349 45.6679 346.594 45.5526C346.839 45.4373 347.142 45.4661 347.358 45.639L362.677 58.0323C362.979 58.2773 363.037 58.7385 362.777 59.0411C362.633 59.214 362.432 59.3149 362.215 59.3149H362.23Z" fill="#4D4D4D"/>
<path d="M375.92 59.3149C375.762 59.3149 375.603 59.2572 375.473 59.1564L361.322 47.7142V58.407C361.322 58.8105 361.005 59.1275 360.601 59.1275C360.198 59.1275 359.881 58.8105 359.881 58.407V46.2011C359.881 45.9273 360.039 45.6679 360.284 45.5526C360.529 45.4373 360.832 45.4661 361.048 45.639L376.367 58.0323C376.669 58.2773 376.727 58.7385 376.468 59.0411C376.324 59.214 376.122 59.3149 375.906 59.3149H375.92Z" fill="#4D4D4D"/>
<path d="M389.596 59.3149C389.437 59.3149 389.279 59.2572 389.149 59.1564L374.998 47.7142V58.407C374.998 58.8105 374.681 59.1275 374.277 59.1275C373.874 59.1275 373.557 58.8105 373.557 58.407V46.2011C373.557 45.9273 373.715 45.6679 373.96 45.5526C374.205 45.4373 374.508 45.4661 374.724 45.639L390.043 58.0323C390.345 58.2773 390.403 58.7385 390.143 59.0411C389.999 59.214 389.798 59.3149 389.581 59.3149H389.596Z" fill="#4D4D4D"/>
<path d="M403.286 59.3149C403.128 59.3149 402.969 59.2572 402.839 59.1564L388.688 47.7142V58.407C388.688 58.8105 388.371 59.1275 387.967 59.1275C387.564 59.1275 387.247 58.8105 387.247 58.407V46.2011C387.247 45.9273 387.405 45.6679 387.65 45.5526C387.895 45.4373 388.198 45.4661 388.414 45.639L403.733 58.0323C404.036 58.2773 404.093 58.7385 403.834 59.0411C403.69 59.214 403.488 59.3149 403.272 59.3149H403.286Z" fill="#4D4D4D"/>
<path d="M416.962 59.3149C416.803 59.3149 416.645 59.2572 416.515 59.1564L402.364 47.7142V58.407C402.364 58.8105 402.047 59.1275 401.643 59.1275C401.24 59.1275 400.923 58.8105 400.923 58.407V46.2011C400.923 45.9273 401.081 45.6679 401.326 45.5526C401.571 45.4373 401.874 45.4661 402.09 45.639L417.409 58.0323C417.711 58.2773 417.769 58.7385 417.51 59.0411C417.365 59.214 417.164 59.3149 416.948 59.3149H416.962Z" fill="#4D4D4D"/>
<path d="M430.652 59.3149C430.494 59.3149 430.335 59.2572 430.206 59.1564L416.054 47.7142V58.407C416.054 58.8105 415.737 59.1275 415.334 59.1275C414.93 59.1275 414.613 58.8105 414.613 58.407V46.2011C414.613 45.9273 414.772 45.6679 415.017 45.5526C415.262 45.4373 415.564 45.4661 415.78 45.639L431.099 58.0323C431.402 58.2773 431.459 58.7385 431.2 59.0411C431.056 59.214 430.854 59.3149 430.638 59.3149H430.652Z" fill="#4D4D4D"/>
<path d="M444.328 59.3149C444.169 59.3149 444.011 59.2572 443.881 59.1564L429.73 47.7142V58.407C429.73 58.8105 429.413 59.1275 429.009 59.1275C428.606 59.1275 428.289 58.8105 428.289 58.407V46.2011C428.289 45.9273 428.447 45.6679 428.692 45.5526C428.937 45.4373 429.24 45.4661 429.456 45.639L444.775 58.0323C445.077 58.2773 445.135 58.7385 444.876 59.0411C444.732 59.214 444.53 59.3149 444.314 59.3149H444.328Z" fill="#4D4D4D"/>
<path d="M525.23 59.3147C525.029 59.3147 524.827 59.2283 524.683 59.0553L506.309 37.3671V58.4069C506.309 58.8104 505.992 59.1274 505.588 59.1274C505.185 59.1274 504.868 58.8104 504.868 58.4069V35.4072C504.868 35.1046 505.055 34.8308 505.343 34.7299C505.632 34.629 505.949 34.7155 506.136 34.9461L525.778 58.1331C526.037 58.4357 525.994 58.8968 525.691 59.1418C525.562 59.2571 525.389 59.3147 525.23 59.3147Z" fill="#4D4D4D"/>
<path d="M539.367 59.3149C539.137 59.3149 538.906 59.1996 538.762 58.9978L524.755 37.814V58.4214C524.755 58.8249 524.438 59.1419 524.034 59.1419C523.631 59.1419 523.314 58.8249 523.314 58.4214V35.4218C523.314 35.1047 523.515 34.8165 523.832 34.73C524.135 34.6436 524.467 34.7589 524.639 35.0183L539.958 58.2052C540.174 58.5367 540.088 58.9834 539.756 59.1996C539.627 59.286 539.497 59.3149 539.353 59.3149H539.367Z" fill="#4D4D4D"/>
<path d="M337.025 160.435C337.025 162.943 334.993 164.975 332.486 164.975C329.978 164.975 327.946 162.943 327.946 160.435C327.946 157.928 329.978 155.896 332.486 155.896C334.993 155.896 337.025 157.928 337.025 160.435Z" fill="#ED7445"/>
<path d="M89.5199 250.978H86.6377V320.15H89.5199V250.978Z" fill="#4D4D4D"/>
<path d="M34.7589 250.978H31.8767V320.15H34.7589V250.978Z" fill="#4D4D4D"/>
<path d="M97.0423 257.463H24.6713V284.123H97.0423V257.463Z" fill="#959595"/>
<path d="M97.0279 284.123V258.904L83.7267 284.123H97.0279Z" fill="#ED7445"/>
<path d="M51.3024 284.123H66.7796L80.8445 257.463H65.3673L51.3024 284.123Z" fill="#ED7445"/>
<path d="M32.9431 257.463L24.6713 273.156V284.123H34.3553L48.4203 257.463H32.9431Z" fill="#ED7445"/>
<path d="M100.328 299.99H21.0686V302.872H100.328V299.99Z" fill="#4D4D4D"/>
<path d="M591.001 250.978H588.119V320.15H591.001V250.978Z" fill="#4D4D4D"/>
<path d="M536.24 250.978H533.358V320.15H536.24V250.978Z" fill="#4D4D4D"/>
<path d="M598.524 257.463H526.153V284.123H598.524V257.463Z" fill="#959595"/>
<path d="M598.524 284.123V258.904L585.222 284.123H598.524Z" fill="#ED7445"/>
<path d="M552.798 284.123H568.275L582.34 257.463H566.863L552.798 284.123Z" fill="#ED7445"/>
<path d="M534.439 257.463L526.153 273.156V284.123H535.851L549.916 257.463H534.439Z" fill="#ED7445"/>
<path d="M601.809 299.99H522.55V302.872H601.809V299.99Z" fill="#4D4D4D"/>
<path d="M131.859 340.08H99.031C97.9502 340.08 97.0712 340.96 97.0712 342.04C97.0712 343.121 97.9502 344 99.031 344H131.859C132.94 344 133.819 343.121 133.819 342.04C133.819 340.96 132.94 340.08 131.859 340.08Z" fill="#ED7445"/>
<path d="M118.111 312.181C117.952 311.763 117.549 311.475 117.102 311.475H113.341C112.88 311.475 112.476 311.763 112.332 312.195L101.74 342.501H129.15L118.111 312.181Z" fill="#ED7445"/>
<path d="M110.372 317.801L108.701 322.585H121.901L120.157 317.801H110.372Z" fill="#ECEFF1"/>
<path d="M106.107 329.993L104.435 334.777H126.339L124.596 329.993H106.107Z" fill="#ECEFF1"/>
<path opacity="0.5" d="M126.945 84.9371C124.538 84.9371 122.319 85.7008 120.489 86.9834V83.813C120.489 74.6622 113.067 67.2406 103.916 67.2406C94.7655 67.2406 87.3439 74.6622 87.3439 83.813V90.0817C85.8452 88.655 83.8277 87.776 81.594 87.776C76.9681 87.776 73.2213 91.5228 73.2213 96.1487H138.156C138.156 89.952 133.141 84.9371 126.945 84.9371Z" fill="#9497A0"/>
<path opacity="0.5" d="M260.763 39.7737C259.02 39.7737 257.391 40.3357 256.066 41.2724V38.9523C256.066 32.2945 250.662 26.8904 244.004 26.8904C237.346 26.8904 231.942 32.2945 231.942 38.9523V43.5061C230.847 42.4685 229.377 41.8344 227.748 41.8344C224.376 41.8344 221.653 44.5581 221.653 47.9302H268.92C268.92 43.4196 265.274 39.7737 260.763 39.7737Z" fill="#9497A0"/>
<g clip-path="url(#clip0_2390_802)">
<path d="M116.14 385.85H93.36C92.61 385.85 92 386.46 92 387.21C92 387.96 92.61 388.57 93.36 388.57H116.14C116.89 388.57 117.5 387.96 117.5 387.21C117.5 386.46 116.89 385.85 116.14 385.85Z" fill="#ED7445"/>
<path d="M106.6 366.49C106.49 366.2 106.21 366 105.9 366H103.29C102.97 366 102.69 366.2 102.59 366.5L95.24 387.53H114.26L106.6 366.49Z" fill="#ED7445"/>
<path d="M101.23 370.39L100.07 373.71H109.23L108.02 370.39H101.23Z" fill="#ECEFF1"/>
<path d="M98.27 378.85L97.11 382.18H112.31L111.1 378.85H98.27Z" fill="#ECEFF1"/>
</g>
<g clip-path="url(#clip1_2390_802)">
<path d="M532.14 385.85H509.36C508.61 385.85 508 386.46 508 387.21C508 387.96 508.61 388.57 509.36 388.57H532.14C532.89 388.57 533.5 387.96 533.5 387.21C533.5 386.46 532.89 385.85 532.14 385.85Z" fill="#ED7445"/>
<path d="M522.6 366.49C522.49 366.2 522.21 366 521.9 366H519.29C518.97 366 518.69 366.2 518.59 366.5L511.24 387.53H530.26L522.6 366.49Z" fill="#ED7445"/>
<path d="M517.23 370.39L516.07 373.71H525.23L524.02 370.39H517.23Z" fill="#ECEFF1"/>
<path d="M514.27 378.85L513.11 382.18H528.31L527.1 378.85H514.27Z" fill="#ECEFF1"/>
</g>
<path d="M141.9 370.5C143.3 370.5 144.475 370.783 145.425 371.35C146.375 371.917 147.075 372.658 147.525 373.575C147.975 374.492 148.2 375.475 148.2 376.525C148.2 377.575 147.975 378.55 147.525 379.45C147.092 380.333 146.4 381.05 145.45 381.6C144.5 382.15 143.317 382.425 141.9 382.425H138.825V388H135.425V370.5H141.9ZM141.375 379.575C142.358 379.575 143.183 379.342 143.85 378.875C144.517 378.408 144.85 377.625 144.85 376.525C144.85 375.425 144.517 374.658 143.85 374.225C143.2 373.775 142.375 373.55 141.375 373.55H138.825V379.575H141.375ZM154.724 388.2C153.091 388.2 151.816 387.575 150.899 386.325C149.982 385.075 149.524 383.425 149.524 381.375C149.524 379.292 149.982 377.625 150.899 376.375C151.832 375.108 153.132 374.475 154.799 374.475C155.916 374.475 156.791 374.733 157.424 375.25C158.057 375.75 158.507 376.283 158.774 376.85H158.974V374.8H162.449V388H158.974V385.725H158.774C158.474 386.342 158.007 386.908 157.374 387.425C156.741 387.942 155.857 388.2 154.724 388.2ZM155.999 385.4C156.982 385.4 157.724 385 158.224 384.2C158.724 383.4 158.974 382.442 158.974 381.325C158.974 380.208 158.724 379.258 158.224 378.475C157.741 377.692 156.999 377.3 155.999 377.3C154.999 377.3 154.257 377.692 153.774 378.475C153.291 379.258 153.049 380.208 153.049 381.325C153.049 382.458 153.291 383.425 153.774 384.225C154.257 385.008 154.999 385.4 155.999 385.4ZM171.877 393.55C171.26 393.55 170.794 393.508 170.477 393.425C170.16 393.358 169.844 393.267 169.527 393.15V390.375C169.694 390.425 169.96 390.475 170.327 390.525C170.71 390.592 171.077 390.625 171.427 390.625C172.594 390.625 173.41 390.292 173.877 389.625C174.36 388.975 174.602 388.158 174.602 387.175V385.425H174.402C174.135 386.025 173.669 386.583 173.002 387.1C172.335 387.617 171.452 387.875 170.352 387.875C169.285 387.875 168.36 387.6 167.577 387.05C166.794 386.483 166.194 385.7 165.777 384.7C165.36 383.683 165.152 382.517 165.152 381.2C165.152 379.85 165.36 378.675 165.777 377.675C166.194 376.658 166.794 375.875 167.577 375.325C168.377 374.758 169.31 374.475 170.377 374.475C171.494 374.475 172.385 374.75 173.052 375.3C173.719 375.833 174.169 376.4 174.402 377H174.602V374.8H178.077V387.175C178.077 388.025 177.919 388.925 177.602 389.875C177.302 390.842 176.694 391.692 175.777 392.425C174.86 393.175 173.56 393.55 171.877 393.55ZM171.652 385.075C172.619 385.075 173.352 384.683 173.852 383.9C174.352 383.117 174.602 382.2 174.602 381.15C174.602 380.117 174.352 379.217 173.852 378.45C173.369 377.667 172.635 377.275 171.652 377.275C170.669 377.275 169.927 377.667 169.427 378.45C168.927 379.217 168.677 380.117 168.677 381.15C168.677 382.2 168.919 383.117 169.402 383.9C169.902 384.683 170.652 385.075 171.652 385.075ZM187.15 388.2C185.767 388.2 184.6 387.883 183.65 387.25C182.7 386.6 181.992 385.758 181.525 384.725C181.075 383.675 180.85 382.55 180.85 381.35C180.85 380.15 181.075 379.033 181.525 378C181.992 376.95 182.7 376.1 183.65 375.45C184.6 374.8 185.775 374.475 187.175 374.475C189.025 374.475 190.492 375.067 191.575 376.25C192.675 377.433 193.225 379.142 193.225 381.375V382.325H184.175V382.525C184.175 383.325 184.45 384.017 185 384.6C185.55 385.167 186.242 385.45 187.075 385.45C187.725 385.45 188.275 385.3 188.725 385C189.175 384.7 189.5 384.292 189.7 383.775H193.1C192.75 385.075 192.067 386.142 191.05 386.975C190.034 387.792 188.734 388.2 187.15 388.2ZM189.9 380.075C189.867 379.025 189.6 378.25 189.1 377.75C188.6 377.25 187.942 377 187.125 377C186.259 377 185.575 377.275 185.075 377.825C184.575 378.375 184.309 379.125 184.275 380.075H189.9ZM201.816 374.8H205.266V388H201.816V374.8ZM203.516 372.525C202.966 372.525 202.508 372.342 202.141 371.975C201.775 371.592 201.591 371.133 201.591 370.6C201.591 370.05 201.775 369.592 202.141 369.225C202.508 368.858 202.966 368.675 203.516 368.675C204.066 368.675 204.525 368.867 204.891 369.25C205.258 369.617 205.441 370.067 205.441 370.6C205.441 371.133 205.258 371.592 204.891 371.975C204.525 372.342 204.066 372.525 203.516 372.525ZM213.421 388.2C212.304 388.2 211.337 387.992 210.521 387.575C209.721 387.158 209.112 386.617 208.696 385.95C208.279 385.267 208.071 384.55 208.071 383.8V383.65H211.446V383.8C211.446 384.25 211.621 384.65 211.971 385C212.321 385.35 212.829 385.525 213.496 385.525C214.046 385.525 214.487 385.4 214.821 385.15C215.171 384.883 215.346 384.525 215.346 384.075C215.346 383.675 215.196 383.358 214.896 383.125C214.596 382.892 214.221 382.742 213.771 382.675L212.271 382.375C211.287 382.192 210.396 381.8 209.596 381.2C208.796 380.6 208.396 379.692 208.396 378.475C208.396 377.225 208.854 376.25 209.771 375.55C210.687 374.833 211.862 374.475 213.296 374.475C214.346 374.475 215.254 374.667 216.021 375.05C216.787 375.433 217.371 375.942 217.771 376.575C218.171 377.192 218.371 377.858 218.371 378.575V378.675H214.996V378.6C214.996 378.2 214.846 377.833 214.546 377.5C214.246 377.15 213.787 376.975 213.171 376.975C212.654 376.975 212.237 377.108 211.921 377.375C211.604 377.642 211.446 377.992 211.446 378.425C211.446 378.825 211.604 379.142 211.921 379.375C212.254 379.608 212.662 379.767 213.146 379.85L214.796 380.175C215.862 380.408 216.762 380.833 217.496 381.45C218.229 382.05 218.596 382.908 218.596 384.025C218.596 384.858 218.371 385.592 217.921 386.225C217.471 386.858 216.846 387.35 216.046 387.7C215.262 388.033 214.387 388.2 213.421 388.2ZM227.036 374.8H230.486V388H227.036V374.8ZM228.736 372.525C228.186 372.525 227.728 372.342 227.361 371.975C226.994 371.592 226.811 371.133 226.811 370.6C226.811 370.05 226.994 369.592 227.361 369.225C227.728 368.858 228.186 368.675 228.736 368.675C229.286 368.675 229.744 368.867 230.111 369.25C230.478 369.617 230.661 370.067 230.661 370.6C230.661 371.133 230.478 371.592 230.111 371.975C229.744 372.342 229.286 372.525 228.736 372.525ZM233.911 374.8H237.411V376.825H237.586C237.886 376.175 238.37 375.625 239.036 375.175C239.703 374.708 240.511 374.475 241.461 374.475C243.178 374.475 244.386 375.025 245.086 376.125C245.803 377.225 246.161 378.475 246.161 379.875V388H242.711V380.45C242.711 379.483 242.478 378.725 242.011 378.175C241.561 377.625 240.92 377.35 240.086 377.35C239.203 377.35 238.536 377.642 238.086 378.225C237.636 378.792 237.411 379.533 237.411 380.45V388H233.911V374.8ZM261.838 388.25C259.671 388.25 257.929 387.608 256.613 386.325C255.296 385.025 254.638 383.025 254.638 380.325V370.5H258.088V380.125C258.088 381.475 258.354 382.617 258.888 383.55C259.438 384.483 260.421 384.95 261.838 384.95C263.221 384.95 264.188 384.492 264.738 383.575C265.288 382.642 265.563 381.492 265.563 380.125V370.5H268.988V380.325C268.988 383.008 268.329 385 267.013 386.3C265.696 387.6 263.971 388.25 261.838 388.25ZM271.9 374.8H275.4V376.825H275.575C275.875 376.175 276.358 375.625 277.025 375.175C277.691 374.708 278.5 374.475 279.45 374.475C281.166 374.475 282.375 375.025 283.075 376.125C283.791 377.225 284.15 378.475 284.15 379.875V388H280.7V380.45C280.7 379.483 280.466 378.725 280 378.175C279.55 377.625 278.908 377.35 278.075 377.35C277.191 377.35 276.525 377.642 276.075 378.225C275.625 378.792 275.4 379.533 275.4 380.45V388H271.9V374.8ZM291.763 388.2C290.096 388.2 288.805 387.575 287.888 386.325C286.988 385.075 286.538 383.425 286.538 381.375C286.538 379.275 286.988 377.6 287.888 376.35C288.805 375.1 290.105 374.475 291.788 374.475C292.921 374.475 293.805 374.733 294.438 375.25C295.071 375.75 295.521 376.283 295.788 376.85H295.988V369.225H299.463V388H295.988V385.725H295.788C295.488 386.342 295.021 386.908 294.388 387.425C293.755 387.942 292.88 388.2 291.763 388.2ZM293.013 385.45C293.996 385.45 294.738 385.05 295.238 384.25C295.738 383.45 295.988 382.492 295.988 381.375C295.988 380.275 295.738 379.325 295.238 378.525C294.738 377.725 293.996 377.325 293.013 377.325C292.013 377.325 291.263 377.725 290.763 378.525C290.28 379.308 290.038 380.25 290.038 381.35C290.038 382.483 290.28 383.45 290.763 384.25C291.263 385.05 292.013 385.45 293.013 385.45ZM308.22 388.2C306.836 388.2 305.67 387.883 304.72 387.25C303.77 386.6 303.061 385.758 302.595 384.725C302.145 383.675 301.92 382.55 301.92 381.35C301.92 380.15 302.145 379.033 302.595 378C303.061 376.95 303.77 376.1 304.72 375.45C305.67 374.8 306.845 374.475 308.245 374.475C310.095 374.475 311.561 375.067 312.645 376.25C313.745 377.433 314.295 379.142 314.295 381.375V382.325H305.245V382.525C305.245 383.325 305.52 384.017 306.07 384.6C306.62 385.167 307.311 385.45 308.145 385.45C308.795 385.45 309.345 385.3 309.795 385C310.245 384.7 310.57 384.292 310.77 383.775H314.17C313.82 385.075 313.136 386.142 312.12 386.975C311.103 387.792 309.803 388.2 308.22 388.2ZM310.97 380.075C310.936 379.025 310.67 378.25 310.17 377.75C309.67 377.25 309.011 377 308.195 377C307.328 377 306.645 377.275 306.145 377.825C305.645 378.375 305.378 379.125 305.345 380.075H310.97ZM316.824 374.8H320.249V376.9H320.424C320.64 376.317 321.04 375.825 321.624 375.425C322.207 375.008 322.957 374.8 323.874 374.8C324.224 374.8 324.524 374.833 324.774 374.9L324.624 378.075C324.207 377.958 323.765 377.9 323.299 377.9C322.265 377.9 321.499 378.175 320.999 378.725C320.499 379.258 320.249 380.15 320.249 381.4V388H316.824V374.8ZM332.154 370.475H338.954C340.504 370.475 341.87 370.825 343.054 371.525C344.237 372.208 345.154 373.208 345.804 374.525C346.47 375.842 346.804 377.408 346.804 379.225C346.804 381.042 346.47 382.608 345.804 383.925C345.137 385.242 344.204 386.25 343.004 386.95C341.82 387.633 340.454 387.975 338.904 387.975H332.154V370.475ZM338.279 384.875C339.762 384.875 340.937 384.433 341.804 383.55C342.67 382.667 343.104 381.217 343.104 379.2C343.104 377.183 342.67 375.742 341.804 374.875C340.937 373.992 339.762 373.55 338.279 373.55H335.529V384.875H338.279ZM355.021 388.2C353.638 388.2 352.471 387.883 351.521 387.25C350.571 386.6 349.863 385.758 349.396 384.725C348.946 383.675 348.721 382.55 348.721 381.35C348.721 380.15 348.946 379.033 349.396 378C349.863 376.95 350.571 376.1 351.521 375.45C352.471 374.8 353.646 374.475 355.046 374.475C356.896 374.475 358.363 375.067 359.446 376.25C360.546 377.433 361.096 379.142 361.096 381.375V382.325H352.046V382.525C352.046 383.325 352.321 384.017 352.871 384.6C353.421 385.167 354.113 385.45 354.946 385.45C355.596 385.45 356.146 385.3 356.596 385C357.046 384.7 357.371 384.292 357.571 383.775H360.971C360.621 385.075 359.938 386.142 358.921 386.975C357.905 387.792 356.605 388.2 355.021 388.2ZM357.771 380.075C357.738 379.025 357.471 378.25 356.971 377.75C356.471 377.25 355.813 377 354.996 377C354.13 377 353.446 377.275 352.946 377.825C352.446 378.375 352.18 379.125 352.146 380.075H357.771ZM362.405 374.8H365.68L368.83 384.5H368.98L372.08 374.8H375.355L370.955 388H366.78L362.405 374.8ZM382.829 388.2C381.446 388.2 380.279 387.883 379.329 387.25C378.379 386.6 377.671 385.758 377.204 384.725C376.754 383.675 376.529 382.55 376.529 381.35C376.529 380.15 376.754 379.033 377.204 378C377.671 376.95 378.379 376.1 379.329 375.45C380.279 374.8 381.454 374.475 382.854 374.475C384.704 374.475 386.171 375.067 387.254 376.25C388.354 377.433 388.904 379.142 388.904 381.375V382.325H379.854V382.525C379.854 383.325 380.129 384.017 380.679 384.6C381.229 385.167 381.921 385.45 382.754 385.45C383.404 385.45 383.954 385.3 384.404 385C384.854 384.7 385.179 384.292 385.379 383.775H388.779C388.429 385.075 387.746 386.142 386.729 386.975C385.712 387.792 384.412 388.2 382.829 388.2ZM385.579 380.075C385.546 379.025 385.279 378.25 384.779 377.75C384.279 377.25 383.621 377 382.804 377C381.937 377 381.254 377.275 380.754 377.825C380.254 378.375 379.987 379.125 379.954 380.075H385.579ZM395.558 388.1C394.325 388.1 393.408 387.917 392.808 387.55C392.225 387.167 391.858 386.7 391.708 386.15C391.575 385.583 391.508 384.867 391.508 384V369.25H394.958V383.3C394.958 383.9 394.983 384.35 395.033 384.65C395.1 384.933 395.267 385.167 395.533 385.35C395.817 385.517 396.258 385.6 396.858 385.6C397.058 385.6 397.292 385.583 397.558 385.55V387.95C396.708 388.05 396.042 388.1 395.558 388.1ZM405.754 388.2C404.37 388.2 403.204 387.892 402.254 387.275C401.32 386.642 400.62 385.808 400.154 384.775C399.687 383.742 399.454 382.608 399.454 381.375C399.454 380.142 399.679 379.008 400.129 377.975C400.595 376.925 401.304 376.083 402.254 375.45C403.204 374.817 404.37 374.5 405.754 374.5C407.137 374.5 408.304 374.817 409.254 375.45C410.204 376.067 410.912 376.892 411.379 377.925C411.845 378.958 412.079 380.092 412.079 381.325C412.079 382.558 411.845 383.7 411.379 384.75C410.912 385.783 410.204 386.617 409.254 387.25C408.304 387.883 407.137 388.2 405.754 388.2ZM405.754 385.4C406.72 385.4 407.445 385.017 407.929 384.25C408.429 383.467 408.679 382.492 408.679 381.325C408.679 380.158 408.429 379.2 407.929 378.45C407.445 377.683 406.72 377.3 405.754 377.3C404.787 377.3 404.062 377.683 403.579 378.45C403.095 379.2 402.854 380.158 402.854 381.325C402.854 382.492 403.095 383.467 403.579 384.25C404.079 385.017 404.804 385.4 405.754 385.4ZM422.227 388.2C421.11 388.2 420.235 387.942 419.602 387.425C418.968 386.908 418.502 386.342 418.202 385.725H418.002V393.2H414.527V374.8H418.002V376.85H418.202C418.468 376.283 418.918 375.75 419.552 375.25C420.185 374.733 421.068 374.475 422.202 374.475C423.885 374.475 425.177 375.1 426.077 376.35C426.993 377.6 427.452 379.275 427.452 381.375C427.452 383.425 426.993 385.075 426.077 386.325C425.177 387.575 423.893 388.2 422.227 388.2ZM420.977 385.45C421.977 385.45 422.718 385.05 423.202 384.25C423.702 383.45 423.952 382.483 423.952 381.35C423.952 380.25 423.702 379.308 423.202 378.525C422.718 377.725 421.977 377.325 420.977 377.325C419.993 377.325 419.252 377.725 418.752 378.525C418.252 379.325 418.002 380.275 418.002 381.375C418.002 382.492 418.252 383.45 418.752 384.25C419.252 385.05 419.993 385.45 420.977 385.45ZM430.029 374.8H433.504V376.925H433.679C433.863 376.458 434.246 375.933 434.829 375.35C435.413 374.767 436.263 374.475 437.379 374.475C438.246 374.475 438.971 374.675 439.554 375.075C440.138 375.475 440.563 375.9 440.829 376.35C441.113 376.783 441.279 377.1 441.329 377.3H441.504C441.704 376.767 442.121 376.167 442.754 375.5C443.388 374.817 444.363 374.475 445.679 374.475C446.829 374.475 447.738 374.775 448.404 375.375C449.088 375.958 449.563 376.667 449.829 377.5C450.113 378.317 450.254 379.108 450.254 379.875V388H446.779V380.225C446.779 379.325 446.546 378.642 446.079 378.175C445.613 377.708 445.046 377.475 444.379 377.475C443.696 377.475 443.104 377.717 442.604 378.2C442.121 378.683 441.879 379.358 441.879 380.225V388H438.404V380.225C438.404 379.325 438.171 378.642 437.704 378.175C437.238 377.708 436.671 377.475 436.004 377.475C435.321 377.475 434.729 377.717 434.229 378.2C433.746 378.683 433.504 379.358 433.504 380.225V388H430.029V374.8ZM458.976 388.2C457.593 388.2 456.426 387.883 455.476 387.25C454.526 386.6 453.818 385.758 453.351 384.725C452.901 383.675 452.676 382.55 452.676 381.35C452.676 380.15 452.901 379.033 453.351 378C453.818 376.95 454.526 376.1 455.476 375.45C456.426 374.8 457.601 374.475 459.001 374.475C460.851 374.475 462.318 375.067 463.401 376.25C464.501 377.433 465.051 379.142 465.051 381.375V382.325H456.001V382.525C456.001 383.325 456.276 384.017 456.826 384.6C457.376 385.167 458.068 385.45 458.901 385.45C459.551 385.45 460.101 385.3 460.551 385C461.001 384.7 461.326 384.292 461.526 383.775H464.926C464.576 385.075 463.893 386.142 462.876 386.975C461.86 387.792 460.56 388.2 458.976 388.2ZM461.726 380.075C461.693 379.025 461.426 378.25 460.926 377.75C460.426 377.25 459.768 377 458.951 377C458.085 377 457.401 377.275 456.901 377.825C456.401 378.375 456.135 379.125 456.101 380.075H461.726ZM467.481 374.8H470.981V376.825H471.156C471.456 376.175 471.939 375.625 472.606 375.175C473.272 374.708 474.081 374.475 475.031 374.475C476.747 374.475 477.956 375.025 478.656 376.125C479.372 377.225 479.731 378.475 479.731 379.875V388H476.281V380.45C476.281 379.483 476.047 378.725 475.581 378.175C475.131 377.625 474.489 377.35 473.656 377.35C472.772 377.35 472.106 377.642 471.656 378.225C471.206 378.792 470.981 379.533 470.981 380.45V388H467.481V374.8ZM487.201 377.5V383.375C487.201 383.958 487.226 384.392 487.276 384.675C487.343 384.958 487.51 385.183 487.776 385.35C488.043 385.517 488.476 385.6 489.076 385.6C489.426 385.6 489.785 385.567 490.151 385.5V387.9C489.968 387.933 489.635 387.975 489.151 388.025C488.685 388.075 488.226 388.1 487.776 388.1C486.56 388.1 485.651 387.925 485.051 387.575C484.468 387.208 484.101 386.758 483.951 386.225C483.801 385.675 483.726 384.975 483.726 384.125V377.5H481.526V374.8H483.751V370.5H487.201V374.8H490.151V377.5H487.201Z" fill="black"/>
<defs>
<clipPath id="clip0_2390_802">
<rect width="25.5" height="22.57" fill="white" transform="translate(92 366)"/>
</clipPath>
<clipPath id="clip1_2390_802">
<rect width="25.5" height="22.57" fill="white" transform="translate(508 366)"/>
</clipPath>
</defs>
</svg>
