<svg width="40" height="40" viewBox="0 0 40 40" fill="none" xmlns="http://www.w3.org/2000/svg">
<path d="M28.8264 23.7423C28.4315 23.5449 25.8648 22.3602 25.4699 22.1628C25.075 21.9653 24.6802 21.9653 24.2853 22.3602C23.8904 22.7551 23.1006 23.9398 22.7057 24.3346C22.5083 24.7295 22.1134 24.7295 21.7185 24.5321C20.3364 23.9398 18.9544 23.15 17.7697 22.1628C16.7825 21.1756 15.7953 19.9909 15.0055 18.8063C14.8081 18.4114 15.0055 18.0165 15.203 17.8191C15.4004 17.6216 15.5979 17.2268 15.9927 17.0293C16.1902 16.8319 16.3876 16.437 16.3876 16.2395C16.5851 16.0421 16.5851 15.6472 16.3876 15.4498C16.1902 15.2523 15.203 12.883 14.8081 11.8958C14.6107 10.5137 14.2158 10.5137 13.8209 10.5137H12.8337C12.4388 10.5137 11.8465 10.9086 11.649 11.1061C10.4644 12.2907 9.87206 13.6728 9.87206 15.2523C10.0695 17.0293 10.6618 18.8063 11.8465 20.3858C14.0183 23.5449 16.7825 26.1116 20.139 27.6911C21.1262 28.086 21.916 28.4809 22.9032 28.6783C23.8904 29.0732 24.8776 29.0732 26.0622 28.8758C27.4443 28.6783 28.629 27.6911 29.4187 26.5065C29.8136 25.7167 29.8136 24.927 29.6162 24.1372L28.8264 23.7423ZM33.7625 5.77516C26.0622 -1.92505 13.6234 -1.92505 5.92324 5.77516C-0.394883 12.0933 -1.57953 21.7679 2.76418 29.4681L0 39.5376L10.4644 36.7734C13.426 38.353 16.5851 39.1427 19.7441 39.1427C30.6034 39.1427 39.2908 30.4553 39.2908 19.596C39.4883 14.4626 37.3164 9.52654 33.7625 5.77516ZM28.4315 33.4169C25.8648 34.9965 22.9032 35.9837 19.7441 35.9837C16.7825 35.9837 14.0183 35.1939 11.4516 33.8118L10.8593 33.4169L4.73859 34.9965L6.31812 29.0732L5.92324 28.4809C1.18465 20.5833 3.55394 10.7112 11.2542 5.77516C18.9544 0.839126 28.8264 3.40586 33.565 10.9086C38.3036 18.6088 36.1317 28.6783 28.4315 33.4169Z" fill="#D6BD98"/>
</svg>
