<svg width="47" height="57" viewBox="0 0 47 57" fill="none" xmlns="http://www.w3.org/2000/svg">
<path d="M23.3082 56.2065C23.2293 56.2065 23.1504 56.1959 23.0742 56.174C2.47896 50.2883 0.0268857 29.4288 0.00448004 29.2186C0.00179136 29.1904 0 29.1614 0 29.1333V9.74886C0 9.4146 0.20613 9.11377 0.521602 8.98886L22.9936 0.0597403C23.2006 -0.0220653 23.4309 -0.0194266 23.6353 0.0650179L45.8733 9.3759C46.1808 9.5052 46.3815 9.80164 46.3815 10.1306V29.0576C46.3815 29.0866 46.3797 29.1157 46.377 29.1447C44.089 50.2101 23.741 56.1194 23.5358 56.1766C23.4614 56.1977 23.3843 56.2083 23.3073 56.2083L23.3082 56.2065ZM1.67236 29.0858C1.79514 30.0665 4.43184 48.9821 23.301 54.529C25.4654 53.8368 42.6487 47.7577 44.71 29.0128V10.6725L23.2992 1.70817L1.67146 10.3013V29.0858H1.67236Z" fill="#BDA588"/>
<path d="M41.2032 12.3493L23.6775 5.1794C23.5762 5.1363 23.4642 5.11255 23.3468 5.11255C23.267 5.11255 23.1908 5.12398 23.1182 5.14421C23.1137 5.14509 23.1102 5.14597 23.1057 5.14773C23.0878 5.15301 23.0707 5.15917 23.0537 5.16533C23.0456 5.16797 23.0376 5.1706 23.0295 5.17412L5.41865 12.2719C5.10497 12.3985 4.90063 12.6985 4.90063 13.031V27.149C4.90063 27.602 5.27526 27.9697 5.73681 27.9697C6.19837 27.9697 6.57299 27.602 6.57299 27.149V13.5807L22.5124 7.15681V12.8779C22.5124 13.3309 22.887 13.6986 23.3486 13.6986C23.8101 13.6986 24.1847 13.3309 24.1847 12.8779V7.16385L40.0479 13.6538V27.5308C40.0479 27.9838 40.4226 28.3515 40.8841 28.3515C41.3457 28.3515 41.7203 27.9838 41.7203 27.5308V13.1066C41.7203 12.775 41.5178 12.4768 41.2059 12.3493H41.2032Z" fill="#BDA588"/>
<path d="M39.3884 35.0998C38.9582 34.9398 38.4742 35.1535 38.3111 35.5775C38.2735 35.6751 34.5407 45.1127 24.183 49.992V41.8017C24.183 41.3487 23.8084 40.9811 23.3468 40.9811C22.8852 40.9811 22.5106 41.3487 22.5106 41.8017V49.9427C19.2645 48.2785 10.2915 43.0878 8.17279 35.647C8.04911 35.2107 7.58755 34.9538 7.14302 35.0779C6.69849 35.1992 6.43859 35.6523 6.56316 36.0886C9.3576 45.9043 22.4488 51.7688 23.0044 52.0134C23.1129 52.0617 23.2294 52.0855 23.3468 52.0855C23.4642 52.0855 23.5691 52.0635 23.6739 52.0204C35.5677 47.0558 39.7047 36.5996 39.875 36.1572C40.0381 35.7332 39.8203 35.2599 39.3884 35.0998Z" fill="#BDA588"/>
<path d="M28.2849 18.6963C25.4708 18.6963 22.9542 19.9709 21.3024 21.9624C20.46 21.3942 19.4965 20.9869 18.4569 20.7899L21.1151 17.8378C21.3338 17.595 21.3517 17.2353 21.1572 16.9723L19.9133 15.2931C19.7806 15.1136 19.5691 15.0081 19.3433 15.0081H15.4196C15.2188 15.0081 15.0279 15.0925 14.8935 15.2394L13.2964 16.9943C13.067 17.2467 13.0571 17.6258 13.2731 17.8888L15.6445 20.7767C12.1125 21.4126 9.42651 24.4544 9.42651 28.1013C9.42651 32.2083 12.8313 35.55 17.0158 35.55C18.8871 35.55 20.6007 34.8806 21.9253 33.7741C23.5546 35.3724 25.8042 36.3619 28.284 36.3619C33.2464 36.3619 37.2839 32.3992 37.2839 27.5278C37.2839 22.6564 33.2464 18.6937 28.284 18.6937L28.2849 18.6963ZM20.9565 27.5305C20.9565 26.3438 21.2522 25.2241 21.7738 24.2363C22.6611 25.2865 23.1961 26.6341 23.1961 28.1031C23.1961 29.3469 22.8126 30.5036 22.1556 31.4668C21.3983 30.3347 20.9565 28.9827 20.9565 27.5313V27.5305ZM14.7465 17.4789L15.735 16.3926H18.9848L19.6847 17.3373L17.0417 20.2726L14.7474 17.4789H14.7465ZM10.8363 28.1031C10.8363 24.7588 13.6083 22.0381 17.0158 22.0381C18.3081 22.0381 19.5091 22.4304 20.5021 23.0989C19.7286 24.4025 19.285 25.9172 19.285 27.5313C19.285 29.4718 19.9258 31.2671 21.0102 32.7264C19.9321 33.6254 18.5376 34.169 17.0158 34.169C13.6083 34.169 10.8363 31.4483 10.8363 28.104V28.1031ZM28.2849 34.7232C26.2487 34.7232 24.4042 33.9034 23.0742 32.5822C24.0341 31.3349 24.605 29.7823 24.605 28.1022C24.605 26.1459 23.8316 24.3647 22.5697 23.0338C23.914 21.3906 25.9753 20.336 28.2849 20.336C32.326 20.336 35.6133 23.5625 35.6133 27.5287C35.6133 31.495 32.326 34.7214 28.2849 34.7214V34.7232Z" fill="#BDA588"/>
</svg>
