<svg width="53" height="53" viewBox="0 0 53 53" fill="none" xmlns="http://www.w3.org/2000/svg">
<path d="M26.5507 50.8927H7.03088C3.15435 50.8927 0 47.7384 0 43.8619V7.03C0 3.15347 3.15435 0 7.03088 0H33.9308C37.8074 0 40.9608 3.15347 40.9608 7.03V25.8708C40.9608 26.3748 40.5518 26.783 40.0487 26.783C39.5455 26.783 39.1365 26.3739 39.1365 25.8708V7.03C39.1365 4.15977 36.8011 1.82435 33.9308 1.82435H7.03088C4.16065 1.82435 1.82523 4.15977 1.82523 7.03V43.8619C1.82523 46.7321 4.16065 49.0675 7.03088 49.0675H26.5507C27.0548 49.0675 27.4629 49.4765 27.4629 49.9797C27.4629 50.4828 27.0539 50.8919 26.5507 50.8919V50.8927Z" fill="#BDA588"/>
<path d="M42.3585 40.8123L52.4101 30.7607C52.7663 30.4045 52.7663 29.8266 52.4101 29.4703C52.0538 29.1141 51.4759 29.1141 51.1196 29.4703L41.0681 39.5218L31.0166 29.4703C30.6603 29.1141 30.0824 29.1141 29.7262 29.4703C29.3699 29.8266 29.3699 30.4045 29.7262 30.7607L39.7777 40.8123L29.7262 50.8638C29.3699 51.22 29.3699 51.798 29.7262 52.1542C29.9039 52.3319 30.1378 52.4216 30.3718 52.4216C30.6058 52.4216 30.8389 52.3328 31.0175 52.1542L41.069 42.1027L51.1205 52.1542C51.2982 52.3319 51.5322 52.4216 51.7662 52.4216C52.0002 52.4216 52.2333 52.3328 52.4118 52.1542C52.7681 51.798 52.7681 51.22 52.4118 50.8638L42.3603 40.8123H42.3585Z" fill="#BDA588"/>
<path d="M33.5974 14.5587H8.12946C7.62543 14.5587 7.21729 14.1497 7.21729 13.6466C7.21729 13.1434 7.62631 12.7344 8.12946 12.7344H33.5974C34.1014 12.7344 34.5096 13.1434 34.5096 13.6466C34.5096 14.1497 34.1005 14.5587 33.5974 14.5587Z" fill="#BDA588"/>
<path d="M23.4104 25.4249H8.12946C7.62543 25.4249 7.21729 25.0159 7.21729 24.5128C7.21729 24.0096 7.62631 23.6006 8.12946 23.6006H23.4104C23.9144 23.6006 24.3226 24.0096 24.3226 24.5128C24.3226 25.0159 23.9135 25.4249 23.4104 25.4249Z" fill="#BDA588"/>
</svg>
