<svg width="52" height="54" viewBox="0 0 52 54" fill="none" xmlns="http://www.w3.org/2000/svg">
<path d="M19.0903 42.1041C10.8253 42.1041 4.10181 35.5051 4.10181 27.3932C4.10181 23.6917 5.50798 20.1547 8.06044 17.4331C8.31855 17.1569 8.7577 17.1393 9.03912 17.3936C9.32053 17.6478 9.33846 18.0779 9.07945 18.3541C6.7636 20.8241 5.48737 24.0348 5.48737 27.3941C5.48737 34.7557 11.5898 40.746 19.0912 40.746C26.5926 40.746 32.6941 34.7566 32.6941 27.3941C32.6941 24.0524 31.4304 20.854 29.1352 18.3902C28.878 18.1131 28.8968 17.683 29.1791 17.4296C29.4614 17.1763 29.8997 17.1948 30.1578 17.4727C32.6861 20.1881 34.0797 23.7119 34.0797 27.3941C34.0797 35.506 27.3562 42.105 19.0912 42.105L19.0903 42.1041Z" fill="#BDA588"/>
<path d="M18.8775 45.8372C8.46869 45.8372 0.000244141 37.5256 0.000244141 27.3087C0.000244141 23.3812 1.23614 19.6287 3.57439 16.4567C3.79935 16.1524 4.23133 16.0837 4.54142 16.3045C4.85152 16.5244 4.92053 16.9493 4.69737 17.2536C2.53029 20.1916 1.38581 23.6688 1.38581 27.3078C1.38581 36.7753 9.23227 44.4764 18.8784 44.4764C28.5244 44.4764 36.3709 36.7744 36.3709 27.3078C36.3709 23.7761 35.2865 20.3834 33.2359 17.4973C33.0172 17.1894 33.0943 16.7655 33.408 16.5508C33.7234 16.3362 34.1536 16.4118 34.3723 16.7197C36.586 19.8354 37.7565 23.4964 37.7565 27.3078C37.7565 37.5238 29.288 45.8363 18.8793 45.8363L18.8775 45.8372Z" fill="#BDA588"/>
<path d="M17.6368 18.8157C13.6397 18.8157 9.6416 18.529 5.70985 17.7619C1.88028 17.0142 0.25004 16.1786 0.260795 14.9656C0.267965 14.1431 1.32462 12.5906 8.20315 11.2966C8.35641 9.17938 8.65575 7.45619 9.13433 5.90628C9.74198 3.94207 10.7861 2.28221 12.0749 1.23369C13.3493 0.194844 14.9419 -0.22298 16.3382 0.114798C16.7316 0.209798 17.0866 0.356695 17.4298 0.499195C17.7641 0.637297 18.0787 0.767483 18.3897 0.832576C19.1049 0.980353 19.8846 0.802668 20.7064 0.612668C21.2307 0.491279 21.7729 0.366371 22.3349 0.317992C24.1506 0.160538 25.9906 0.873919 27.3923 2.27341C30.2351 5.11285 30.9341 9.60336 31.1053 11.8042C31.385 11.8394 31.8859 11.8737 32.7714 11.8957C32.9336 11.9001 33.0519 11.9036 33.1021 11.9062C34.6284 12.0162 36.065 12.3698 37.3717 12.9574C37.6621 13.0885 38.4311 13.435 38.6462 14.1906C38.8765 15.0078 38.4239 15.8769 37.4336 16.5155C36.1367 17.3529 34.6463 17.6106 33.2294 17.7646C28.154 18.317 22.8995 18.814 17.6386 18.814L17.6368 18.8157ZM1.64367 15.0008C1.66966 15.0008 2.07745 15.6666 5.98051 16.4284C14.8917 18.1683 24.2528 17.3758 33.0743 16.4143C34.321 16.2789 35.6187 16.0598 36.6709 15.3808C37.0912 15.1098 37.3664 14.7545 37.309 14.5557C37.2938 14.5003 37.2059 14.3798 36.7928 14.1941C35.6375 13.6743 34.3613 13.3611 32.9999 13.2635C32.9587 13.2609 32.8637 13.2582 32.7365 13.2556C30.7441 13.2063 29.7843 13.1456 29.7511 12.3073C29.6507 10.4883 29.1211 5.93971 26.4046 3.22693C25.2933 2.11771 23.8513 1.55299 22.4567 1.67262C21.9934 1.71308 21.522 1.82128 21.0228 1.93651C20.088 2.1529 19.1192 2.37457 18.102 2.16258C17.661 2.07021 17.2694 1.90836 16.8912 1.75179C16.5838 1.62424 16.2943 1.50461 16.0066 1.43512C15.0548 1.20378 13.8834 1.52748 12.9594 2.28045C11.8768 3.16183 10.9895 4.59035 10.4599 6.30211C9.9732 7.87313 9.68462 9.65438 9.55018 11.908C9.53226 12.2211 9.29745 12.4806 8.98287 12.5369C5.29938 13.1949 1.86952 14.3463 1.64278 15.0016C1.64278 15.0016 1.64278 15.0008 1.64457 15.0008H1.64367ZM31.1331 12.2247C31.1331 12.2308 31.1331 12.2379 31.1331 12.244C31.1331 12.237 31.1331 12.2308 31.1331 12.2247Z" fill="#BDA588"/>
<path d="M47.3016 53.4135C46.426 53.4135 45.5459 53.1197 44.8352 52.5224L33.7991 43.2362C32.9629 42.5333 32.729 41.3793 33.1699 40.431L32.3257 39.7766C32.0263 39.5444 31.9744 39.1169 32.211 38.8222C32.4476 38.5284 32.884 38.4774 33.1843 38.7096L34.5152 39.7414C34.81 39.9701 34.8656 40.3879 34.6397 40.6826L34.5474 40.804C34.214 41.2377 34.2812 41.8516 34.7007 42.2035L45.7368 51.4897C46.7334 52.328 48.2507 52.2225 49.1165 51.2575C49.5511 50.7737 49.7627 50.1527 49.7107 49.5097C49.6596 48.8667 49.354 48.2852 48.8485 47.8736L37.4853 38.6014C37.0631 38.2566 36.4376 38.2927 36.0603 38.6815C35.8102 38.9383 35.4033 38.9629 35.1228 38.7395L33.6772 37.5881C33.3805 37.3515 33.3348 36.924 33.5759 36.6319C33.8161 36.3408 34.2517 36.2959 34.5501 36.5325L35.5682 37.3435C36.4322 36.8377 37.5641 36.8976 38.3716 37.5555L49.7349 46.8277C50.5298 47.4769 51.012 48.3917 51.0918 49.4041C51.1724 50.4166 50.8399 51.393 50.1561 52.1556C49.4104 52.9869 48.3592 53.4135 47.3025 53.4135H47.3016Z" fill="#BDA588"/>
<path d="M19.3349 31.6349C16.4024 31.6349 14.0176 29.2933 14.0176 26.416C14.0176 23.5387 16.4024 21.1963 19.3349 21.1963C22.2673 21.1963 24.6531 23.5379 24.6531 26.416C24.6531 29.2942 22.2673 31.6349 19.3349 31.6349ZM19.3349 22.5553C17.1669 22.5553 15.4022 24.2873 15.4022 26.4151C15.4022 28.543 17.1669 30.2749 19.3349 30.2749C21.5029 30.2749 23.2684 28.5438 23.2684 26.4151C23.2684 24.2864 21.5038 22.5553 19.3349 22.5553Z" fill="#BDA588"/>
<path d="M19.3349 33.5602C18.9522 33.5602 18.6421 33.2558 18.6421 32.8802V29.1321C18.6421 28.7565 18.9522 28.4521 19.3349 28.4521C19.7176 28.4521 20.0277 28.7565 20.0277 29.1321V32.8802C20.0277 33.2558 19.7176 33.5602 19.3349 33.5602Z" fill="#BDA588"/>
<path d="M19.3349 24.172C18.9522 24.172 18.6421 23.8676 18.6421 23.492V19.7439C18.6421 19.3683 18.9522 19.064 19.3349 19.064C19.7176 19.064 20.0277 19.3683 20.0277 19.7439V23.492C20.0277 23.8676 19.7176 24.172 19.3349 24.172Z" fill="#BDA588"/>
<path d="M26.0281 26.992H22.2084C21.8257 26.992 21.5156 26.6876 21.5156 26.312C21.5156 25.9364 21.8257 25.6321 22.2084 25.6321H26.0281C26.4108 25.6321 26.7209 25.9364 26.7209 26.312C26.7209 26.6876 26.4108 26.992 26.0281 26.992Z" fill="#BDA588"/>
<path d="M16.4615 26.992H12.6418C12.2591 26.992 11.949 26.6876 11.949 26.312C11.949 25.9364 12.2591 25.6321 12.6418 25.6321H16.4615C16.8442 25.6321 17.1543 25.9364 17.1543 26.312C17.1543 26.6876 16.8442 26.992 16.4615 26.992Z" fill="#BDA588"/>
</svg>
