<svg width="42" height="31" viewBox="0 0 42 31" fill="none" xmlns="http://www.w3.org/2000/svg">
<path d="M35.5615 0.5C37.1365 0.5 38.6471 1.12558 39.7607 2.23926C40.8744 3.35294 41.5 4.8635 41.5 6.43848V23.8691C41.4999 25.444 40.8743 26.9548 39.7607 28.0684C38.6471 29.1819 37.1364 29.8076 35.5615 29.8076H6.43848C4.86358 29.8076 3.35292 29.1819 2.23926 28.0684C1.12566 26.9548 0.500091 25.444 0.5 23.8691V6.43848C0.5 4.86349 1.12558 3.35294 2.23926 2.23926C3.35294 1.12558 4.86349 0.5 6.43848 0.5H35.5615ZM6.43848 2.85938C5.4893 2.85938 4.57937 3.23704 3.9082 3.9082C3.23704 4.57937 2.85938 5.4893 2.85938 6.43848V23.8691C2.85947 24.8182 3.23712 25.7283 3.9082 26.3994C4.57935 27.0705 5.48938 27.4473 6.43848 27.4473H35.5615C36.5106 27.4473 37.4206 27.0705 38.0918 26.3994C38.7629 25.7283 39.1405 24.8182 39.1406 23.8691V6.43848C39.1406 5.4893 38.763 4.57937 38.0918 3.9082C37.4206 3.23704 36.5107 2.85938 35.5615 2.85938H6.43848Z" fill="#D6BD98" stroke="#D6BD98"/>
<path d="M2.07715 4.07361C2.2455 4.06075 2.41472 4.08384 2.57324 4.14197C2.71716 4.1948 2.84795 4.27707 2.96094 4.38025L18.8408 16.3656L19.0801 16.5326C19.6522 16.8963 20.318 17.0912 21 17.0912C21.7795 17.0912 22.5376 16.8359 23.1592 16.3656H23.1602L39.0537 4.36755V4.36853C39.1718 4.274 39.3062 4.20206 39.4512 4.15857C39.6038 4.11287 39.7645 4.09864 39.9229 4.11658C40.0811 4.13451 40.2345 4.1834 40.373 4.26208C40.5114 4.34069 40.6321 4.44702 40.7285 4.57361C40.825 4.70039 40.8957 4.84586 40.9346 5.00037C40.9734 5.15478 40.98 5.3157 40.9551 5.47302C40.9302 5.63021 40.8737 5.78059 40.7891 5.91541C40.708 6.04442 40.602 6.15557 40.4785 6.24451L40.4795 6.24548L24.5781 18.2719L24.5752 18.2738C23.5426 19.0415 22.2886 19.4521 21.002 19.4457L21.0029 19.4467L21 19.4457L20.9971 19.4467V19.4457C19.7108 19.4519 18.4571 19.0413 17.4248 18.2738L17.4219 18.2719L1.55371 6.25427C1.42696 6.17689 1.3142 6.07825 1.22461 5.95935C1.12301 5.82446 1.05211 5.66916 1.01562 5.50427C0.979138 5.3393 0.978401 5.16853 1.01367 5.0033C1.04896 4.83803 1.11902 4.68197 1.21973 4.54626C1.3204 4.41064 1.44882 4.29781 1.59668 4.21619C1.74459 4.13456 1.90871 4.0865 2.07715 4.07361Z" fill="#D6BD98" stroke="#D6BD98"/>
<path d="M14.6606 13.4592C14.9739 13.4791 15.2666 13.6222 15.4741 13.8577C15.6816 14.0933 15.7879 14.4018 15.7681 14.7151C15.7482 15.0284 15.6042 15.321 15.3687 15.5286L2.86865 26.6692L2.8667 26.6711C2.64864 26.8633 2.36728 26.9685 2.07666 26.9661H2.07471C1.83784 26.9631 1.60768 26.888 1.41357 26.7522C1.21951 26.6165 1.07084 26.4258 0.986816 26.2043C0.902831 25.9829 0.886729 25.7413 0.941895 25.511C0.997127 25.2806 1.12107 25.0717 1.29639 24.9124L1.29932 24.9094L13.8013 13.7542L13.8032 13.7522C14.0388 13.5447 14.3474 13.4394 14.6606 13.4592ZM27.3521 13.4446C27.5119 13.4398 27.671 13.467 27.8198 13.5256C27.9606 13.5811 28.089 13.6638 28.1987 13.7678L40.7007 24.9094L40.7017 24.9104C40.9342 25.1187 41.0746 25.4112 41.0923 25.7229C41.1099 26.0346 41.003 26.3403 40.7954 26.5735L40.7935 26.5764C40.6832 26.6986 40.5483 26.7965 40.3979 26.8635C40.2482 26.9303 40.0862 26.9644 39.9224 26.9651L39.9233 26.9661H39.9204L39.9194 26.9651C39.6302 26.9666 39.3504 26.8624 39.1333 26.6711L39.1313 26.6692L26.6294 15.5266V15.5256C26.5137 15.4284 26.4172 15.3106 26.3462 15.177C26.271 15.0356 26.2247 14.8805 26.2114 14.7209C26.1982 14.5615 26.2183 14.4011 26.269 14.2493C26.3198 14.0975 26.4008 13.9576 26.5073 13.8381C26.614 13.7187 26.744 13.6216 26.8892 13.554C27.0342 13.4864 27.1921 13.4495 27.3521 13.4446Z" fill="#D6BD98" stroke="#D6BD98"/>
</svg>
