<svg width="52" height="55" viewBox="0 0 52 55" fill="none" xmlns="http://www.w3.org/2000/svg">
<path d="M31.201 48.8308H0.608824C0.272753 48.8308 0 48.5845 0 48.281V3.31344C0 3.00997 0.272753 2.76367 0.608824 2.76367H36.6395C36.9756 2.76367 37.2483 3.00997 37.2483 3.31344V19.7352C37.2483 20.0387 36.9756 20.285 36.6395 20.285C36.3034 20.285 36.0307 20.0387 36.0307 19.7352V3.86409H1.21765V47.7312H31.201C31.5371 47.7312 31.8098 47.9775 31.8098 48.281C31.8098 48.5845 31.5371 48.8308 31.201 48.8308Z" fill="#BDA588"/>
<path d="M39.8688 23.5063C39.5328 23.5063 39.26 23.26 39.26 22.9566V1.09954H4.27746V3.31181C4.27746 3.61528 4.00471 3.86157 3.66864 3.86157C3.33257 3.86157 3.05981 3.61528 3.05981 3.31181V0.549769C3.05981 0.246296 3.33257 0 3.66864 0H39.8698C40.2059 0 40.4786 0.246296 40.4786 0.549769V22.9566C40.4786 23.26 40.2059 23.5063 39.8698 23.5063H39.8688Z" fill="#BDA588"/>
<path d="M31.372 45.0448C31.1421 45.0448 30.923 44.9269 30.8197 44.7264L28.6766 40.5666L23.8626 39.504C23.7038 39.4688 23.5664 39.3773 23.4827 39.2498C23.3999 39.1223 23.3765 38.9701 23.4193 38.8267L24.7461 34.3679L21.8646 30.6382C21.6747 30.3928 21.738 30.0542 22.0069 29.8782L26.3222 27.0529L26.9145 22.433C26.934 22.2853 27.0187 22.1498 27.1502 22.0592C27.2817 21.9686 27.4502 21.9308 27.6119 21.9528L32.4679 22.6274L36.2163 19.3394C36.3342 19.2356 36.4969 19.1863 36.6595 19.1846C36.8251 19.1898 36.981 19.2549 37.0921 19.3658L40.1401 22.4075H45.5922C45.9137 22.4075 46.1796 22.6327 46.2001 22.9221L46.5205 27.4082L50.8593 30.0198C50.9995 30.1043 51.095 30.238 51.1223 30.3884C51.1496 30.5388 51.1067 30.6928 51.0044 30.8133L47.9564 34.3863L49.2987 39.0879C49.3396 39.2313 49.3153 39.3844 49.2296 39.511C49.1439 39.6377 49.0065 39.7283 48.8458 39.7617L43.981 40.776L41.9529 44.7264C41.8136 44.9991 41.4571 45.1205 41.1532 44.9973L36.3059 43.0516L31.6273 44.9938C31.5454 45.0281 31.4587 45.0439 31.373 45.0439L31.372 45.0448ZM36.3001 41.8984C36.3839 41.8984 36.4686 41.9142 36.5475 41.9459L41.0986 43.772L42.9991 40.0679C43.078 39.9139 43.231 39.8013 43.4151 39.7635L47.9613 38.8161L46.7008 34.4004C46.654 34.2359 46.693 34.0617 46.8079 33.928L49.6397 30.6083L45.5932 28.1726C45.4354 28.0776 45.336 27.9211 45.3234 27.7504L45.0204 23.5071H39.8693C39.6968 23.5071 39.5332 23.4411 39.4173 23.3259L36.6118 20.5251L33.0982 23.6073C32.9608 23.727 32.7689 23.7833 32.5809 23.7569L28.0503 23.1271L27.4999 27.4197C27.4804 27.5727 27.3908 27.7108 27.2525 27.8014L23.205 30.4517L25.9063 33.9483C26.0095 34.0811 26.0417 34.2482 25.9949 34.4057L24.7568 38.569L29.2504 39.5612C29.4296 39.6008 29.5797 39.7125 29.6576 39.8638L31.6682 43.7667L36.0459 41.9485C36.1267 41.9151 36.2134 41.8984 36.3001 41.8984Z" fill="#BDA588"/>
<path d="M36.441 40.0822C31.8879 40.0822 28.1833 36.737 28.1833 32.6256C28.1833 28.5142 31.8879 25.1689 36.441 25.1689C40.994 25.1689 44.6986 28.5142 44.6986 32.6256C44.6986 36.737 40.994 40.0822 36.441 40.0822ZM36.441 26.2694C32.5591 26.2694 29.402 29.1202 29.402 32.6256C29.402 36.1309 32.5591 38.9818 36.441 38.9818C40.3228 38.9818 43.4799 36.1309 43.4799 32.6256C43.4799 29.1202 40.3228 26.2694 36.441 26.2694Z" fill="#BDA588"/>
<path d="M31.1664 38.1741C31.0135 38.1741 30.8605 38.1222 30.7427 38.0193C30.5011 37.8082 30.4943 37.4599 30.729 37.2417L41.3674 27.3222C41.6012 27.1031 41.9869 27.0978 42.2285 27.3098C42.4701 27.5209 42.4769 27.8693 42.2421 28.0874L31.6038 38.007C31.484 38.1187 31.3252 38.175 31.1664 38.175V38.1741Z" fill="#BDA588"/>
<path d="M31.1661 54.9693C31.0852 54.9693 31.0044 54.9543 30.9274 54.9253C30.6985 54.8373 30.5524 54.6333 30.5572 54.409L30.7618 44.4841C30.7677 44.1806 31.0541 43.9264 31.3823 43.9449C31.7184 43.9502 31.9863 44.2009 31.9795 44.5052L31.8031 53.0658L35.9081 49.359C36.1351 49.1541 36.4984 49.1435 36.739 49.3335L41.1946 52.8494V43.7021C41.1946 43.3986 41.4674 43.1523 41.8034 43.1523C42.1395 43.1523 42.4123 43.3986 42.4123 43.7021V54.0606C42.4123 54.2761 42.272 54.4723 42.0548 54.5611C41.8375 54.65 41.5823 54.6166 41.4021 54.4741L36.3649 50.4999L31.5947 54.8074C31.4778 54.913 31.3229 54.9684 31.1641 54.9684L31.1661 54.9693Z" fill="#BDA588"/>
<path d="M39.8693 37.2178H35.9553C33.9662 37.2178 32.3481 35.7567 32.3481 33.9605V31.4448C32.3481 29.6486 33.9662 28.1875 35.9553 28.1875H39.8693C40.2054 28.1875 40.4781 28.4338 40.4781 28.7373C40.4781 29.0407 40.2054 29.287 39.8693 29.287H35.9553C34.6383 29.287 33.5668 30.2546 33.5668 31.4439V33.9596C33.5668 35.1489 34.6383 36.1165 35.9553 36.1165H39.8693C40.2054 36.1165 40.4781 36.3628 40.4781 36.6663C40.4781 36.9697 40.2054 37.216 39.8693 37.216V37.2178Z" fill="#BDA588"/>
<path d="M32.3345 11.7919H9.8996C9.56352 11.7919 9.29077 11.5456 9.29077 11.2422C9.29077 10.9387 9.56352 10.6924 9.8996 10.6924H32.3345C32.6706 10.6924 32.9433 10.9387 32.9433 11.2422C32.9433 11.5456 32.6706 11.7919 32.3345 11.7919Z" fill="#BDA588"/>
<path d="M32.3344 17.9306H4.97723C4.64116 17.9306 4.36841 17.6843 4.36841 17.3808C4.36841 17.0774 4.64116 16.8311 4.97723 16.8311H32.3344C32.6705 16.8311 32.9432 17.0774 32.9432 17.3808C32.9432 17.6843 32.6705 17.9306 32.3344 17.9306Z" fill="#BDA588"/>
<path d="M25.4064 23.5068H4.97723C4.64116 23.5068 4.36841 23.2605 4.36841 22.957C4.36841 22.6535 4.64116 22.4072 4.97723 22.4072H25.4064C25.7425 22.4072 26.0153 22.6535 26.0153 22.957C26.0153 23.2605 25.7425 23.5068 25.4064 23.5068Z" fill="#BDA588"/>
<path d="M21.7678 28.9804H4.34662C4.01055 28.9804 3.73779 28.7341 3.73779 28.4306C3.73779 28.1272 4.01055 27.8809 4.34662 27.8809H21.7678C22.1038 27.8809 22.3766 28.1272 22.3766 28.4306C22.3766 28.7341 22.1038 28.9804 21.7678 28.9804Z" fill="#BDA588"/>
<path d="M23.1559 34.6083H4.34662C4.01055 34.6083 3.73779 34.362 3.73779 34.0586C3.73779 33.7551 4.01055 33.5088 4.34662 33.5088H23.1559C23.4919 33.5088 23.7647 33.7551 23.7647 34.0586C23.7647 34.362 23.4919 34.6083 23.1559 34.6083Z" fill="#BDA588"/>
<path d="M22.3633 40.9511H4.97723C4.64116 40.9511 4.36841 40.7048 4.36841 40.4013C4.36841 40.0979 4.64116 39.8516 4.97723 39.8516H22.3633C22.6994 39.8516 22.9721 40.0979 22.9721 40.4013C22.9721 40.7048 22.6994 40.9511 22.3633 40.9511Z" fill="#BDA588"/>
</svg>
